<mxfile host="app.diagrams.net" modified="2024-02-26T00:34:26.709Z" agent="Mozilla/5.0 (Windows NT 10.0; Win64; x64) AppleWebKit/537.36 (KHTML, like Gecko) Chrome/121.0.0.0 Safari/537.36" etag="8rFMh33yXsC4O4x57HUw" version="23.1.5" type="github">
  <diagram name="Page-1" id="edf60f1a-56cd-e834-aa8a-f176f3a09ee4">
    <mxGraphModel dx="880" dy="426" grid="1" gridSize="10" guides="1" tooltips="1" connect="1" arrows="1" fold="1" page="1" pageScale="1" pageWidth="1100" pageHeight="850" background="none" math="0" shadow="0">
      <root>
        <mxCell id="0" />
        <mxCell id="1" parent="0" />
        <mxCell id="fhnLoKFcNljKNc5BReow-1" value="digitar saldo inicial do estoque" style="shape=manualInput;whiteSpace=wrap;html=1;dashed=0;size=15;" vertex="1" parent="1">
          <mxGeometry x="220" y="70" width="110" height="60" as="geometry" />
        </mxCell>
        <mxCell id="fhnLoKFcNljKNc5BReow-2" value="iniciar sistema" style="html=1;dashed=0;whiteSpace=wrap;shape=mxgraph.dfd.start" vertex="1" parent="1">
          <mxGeometry x="320" y="10" width="130" height="30" as="geometry" />
        </mxCell>
        <mxCell id="fhnLoKFcNljKNc5BReow-6" style="edgeStyle=orthogonalEdgeStyle;rounded=0;orthogonalLoop=1;jettySize=auto;html=1;entryX=0.5;entryY=0.16;entryDx=0;entryDy=0;entryPerimeter=0;" edge="1" parent="1" source="fhnLoKFcNljKNc5BReow-2" target="fhnLoKFcNljKNc5BReow-1">
          <mxGeometry relative="1" as="geometry">
            <Array as="points">
              <mxPoint x="385" y="50" />
              <mxPoint x="275" y="50" />
            </Array>
          </mxGeometry>
        </mxCell>
        <mxCell id="fhnLoKFcNljKNc5BReow-14" style="edgeStyle=orthogonalEdgeStyle;rounded=0;orthogonalLoop=1;jettySize=auto;html=1;entryX=0.5;entryY=0;entryDx=0;entryDy=0;" edge="1" parent="1" source="fhnLoKFcNljKNc5BReow-7" target="fhnLoKFcNljKNc5BReow-12">
          <mxGeometry relative="1" as="geometry" />
        </mxCell>
        <mxCell id="fhnLoKFcNljKNc5BReow-15" style="edgeStyle=orthogonalEdgeStyle;rounded=0;orthogonalLoop=1;jettySize=auto;html=1;" edge="1" parent="1" source="fhnLoKFcNljKNc5BReow-7" target="fhnLoKFcNljKNc5BReow-13">
          <mxGeometry relative="1" as="geometry" />
        </mxCell>
        <mxCell id="fhnLoKFcNljKNc5BReow-7" value="digitar tipo de entrada(1 para compra, 2 para venda)&lt;br&gt;digitar quantidade de peças" style="shape=manualInput;whiteSpace=wrap;html=1;dashed=0;size=15;" vertex="1" parent="1">
          <mxGeometry x="190" y="180" width="160" height="80" as="geometry" />
        </mxCell>
        <mxCell id="fhnLoKFcNljKNc5BReow-11" style="edgeStyle=orthogonalEdgeStyle;rounded=0;orthogonalLoop=1;jettySize=auto;html=1;entryX=0.531;entryY=0.088;entryDx=0;entryDy=0;entryPerimeter=0;" edge="1" parent="1" source="fhnLoKFcNljKNc5BReow-1" target="fhnLoKFcNljKNc5BReow-7">
          <mxGeometry relative="1" as="geometry" />
        </mxCell>
        <mxCell id="fhnLoKFcNljKNc5BReow-12" value="Se tipo de &lt;br&gt;entrada é compra" style="shape=rhombus;html=1;dashed=0;whiteSpace=wrap;perimeter=rhombusPerimeter;" vertex="1" parent="1">
          <mxGeometry x="100" y="300" width="120" height="90" as="geometry" />
        </mxCell>
        <mxCell id="fhnLoKFcNljKNc5BReow-19" style="edgeStyle=orthogonalEdgeStyle;rounded=0;orthogonalLoop=1;jettySize=auto;html=1;entryX=0.5;entryY=0;entryDx=0;entryDy=0;" edge="1" parent="1" source="fhnLoKFcNljKNc5BReow-13" target="fhnLoKFcNljKNc5BReow-18">
          <mxGeometry relative="1" as="geometry" />
        </mxCell>
        <mxCell id="fhnLoKFcNljKNc5BReow-22" style="edgeStyle=orthogonalEdgeStyle;rounded=0;orthogonalLoop=1;jettySize=auto;html=1;" edge="1" parent="1" source="fhnLoKFcNljKNc5BReow-13" target="fhnLoKFcNljKNc5BReow-21">
          <mxGeometry relative="1" as="geometry" />
        </mxCell>
        <mxCell id="fhnLoKFcNljKNc5BReow-13" value="Se tipo de&amp;nbsp;&lt;br&gt;entrada é venda" style="shape=rhombus;html=1;dashed=0;whiteSpace=wrap;perimeter=rhombusPerimeter;" vertex="1" parent="1">
          <mxGeometry x="330" y="300" width="130" height="90" as="geometry" />
        </mxCell>
        <mxCell id="fhnLoKFcNljKNc5BReow-29" style="edgeStyle=orthogonalEdgeStyle;rounded=0;orthogonalLoop=1;jettySize=auto;html=1;entryX=0;entryY=0.5;entryDx=0;entryDy=0;" edge="1" parent="1" source="fhnLoKFcNljKNc5BReow-16" target="fhnLoKFcNljKNc5BReow-28">
          <mxGeometry relative="1" as="geometry" />
        </mxCell>
        <mxCell id="fhnLoKFcNljKNc5BReow-16" value="adicionar&amp;nbsp;quantidade ao estoque" style="shape=manualInput;whiteSpace=wrap;html=1;dashed=0;size=15;" vertex="1" parent="1">
          <mxGeometry x="90" y="430" width="120" height="70" as="geometry" />
        </mxCell>
        <mxCell id="fhnLoKFcNljKNc5BReow-30" style="edgeStyle=orthogonalEdgeStyle;rounded=0;orthogonalLoop=1;jettySize=auto;html=1;entryX=0.5;entryY=0;entryDx=0;entryDy=0;" edge="1" parent="1" source="fhnLoKFcNljKNc5BReow-17" target="fhnLoKFcNljKNc5BReow-28">
          <mxGeometry relative="1" as="geometry" />
        </mxCell>
        <mxCell id="fhnLoKFcNljKNc5BReow-17" value="&lt;div style=&quot;text-align: left;&quot;&gt;&lt;span style=&quot;background-color: initial;&quot;&gt;subtrair quantidade do estoque, se possível&lt;/span&gt;&lt;/div&gt;" style="shape=manualInput;whiteSpace=wrap;html=1;dashed=0;size=15;" vertex="1" parent="1">
          <mxGeometry x="275" y="540" width="130" height="80" as="geometry" />
        </mxCell>
        <mxCell id="fhnLoKFcNljKNc5BReow-24" style="edgeStyle=orthogonalEdgeStyle;rounded=0;orthogonalLoop=1;jettySize=auto;html=1;entryX=1;entryY=0.5;entryDx=0;entryDy=0;" edge="1" parent="1" source="fhnLoKFcNljKNc5BReow-18" target="fhnLoKFcNljKNc5BReow-7">
          <mxGeometry relative="1" as="geometry">
            <Array as="points">
              <mxPoint x="560" y="458" />
              <mxPoint x="560" y="220" />
            </Array>
          </mxGeometry>
        </mxCell>
        <mxCell id="fhnLoKFcNljKNc5BReow-18" value="quantidade &amp;lt; 1?" style="shape=rhombus;html=1;dashed=0;whiteSpace=wrap;perimeter=rhombusPerimeter;" vertex="1" parent="1">
          <mxGeometry x="420" y="415" width="100" height="85" as="geometry" />
        </mxCell>
        <mxCell id="fhnLoKFcNljKNc5BReow-23" style="edgeStyle=orthogonalEdgeStyle;rounded=0;orthogonalLoop=1;jettySize=auto;html=1;entryX=0.5;entryY=0;entryDx=0;entryDy=0;" edge="1" parent="1" source="fhnLoKFcNljKNc5BReow-21" target="fhnLoKFcNljKNc5BReow-17">
          <mxGeometry relative="1" as="geometry" />
        </mxCell>
        <mxCell id="fhnLoKFcNljKNc5BReow-21" value="quantidade &amp;gt; 1?" style="shape=rhombus;html=1;dashed=0;whiteSpace=wrap;perimeter=rhombusPerimeter;" vertex="1" parent="1">
          <mxGeometry x="290" y="415" width="100" height="85" as="geometry" />
        </mxCell>
        <mxCell id="fhnLoKFcNljKNc5BReow-25" style="edgeStyle=orthogonalEdgeStyle;rounded=0;orthogonalLoop=1;jettySize=auto;html=1;entryX=0.583;entryY=0.143;entryDx=0;entryDy=0;entryPerimeter=0;" edge="1" parent="1" source="fhnLoKFcNljKNc5BReow-12" target="fhnLoKFcNljKNc5BReow-16">
          <mxGeometry relative="1" as="geometry" />
        </mxCell>
        <mxCell id="fhnLoKFcNljKNc5BReow-34" style="edgeStyle=orthogonalEdgeStyle;rounded=0;orthogonalLoop=1;jettySize=auto;html=1;entryX=0;entryY=0.5;entryDx=0;entryDy=0;" edge="1" parent="1" source="fhnLoKFcNljKNc5BReow-27" target="fhnLoKFcNljKNc5BReow-32">
          <mxGeometry relative="1" as="geometry">
            <Array as="points">
              <mxPoint x="470" y="735" />
              <mxPoint x="470" y="755" />
            </Array>
          </mxGeometry>
        </mxCell>
        <mxCell id="fhnLoKFcNljKNc5BReow-35" style="edgeStyle=orthogonalEdgeStyle;rounded=0;orthogonalLoop=1;jettySize=auto;html=1;entryX=0.5;entryY=1;entryDx=0;entryDy=0;" edge="1" parent="1" source="fhnLoKFcNljKNc5BReow-27" target="fhnLoKFcNljKNc5BReow-33">
          <mxGeometry relative="1" as="geometry">
            <Array as="points">
              <mxPoint x="470" y="680" />
              <mxPoint x="550" y="680" />
            </Array>
          </mxGeometry>
        </mxCell>
        <mxCell id="fhnLoKFcNljKNc5BReow-27" value="deseja continuar (s/n)" style="shape=manualInput;whiteSpace=wrap;html=1;dashed=0;size=15;" vertex="1" parent="1">
          <mxGeometry x="330" y="700" width="110" height="70" as="geometry" />
        </mxCell>
        <mxCell id="fhnLoKFcNljKNc5BReow-31" style="edgeStyle=orthogonalEdgeStyle;rounded=0;orthogonalLoop=1;jettySize=auto;html=1;entryX=0;entryY=0.5;entryDx=0;entryDy=0;" edge="1" parent="1" source="fhnLoKFcNljKNc5BReow-28" target="fhnLoKFcNljKNc5BReow-27">
          <mxGeometry relative="1" as="geometry" />
        </mxCell>
        <mxCell id="fhnLoKFcNljKNc5BReow-28" value="Verificar Continuação" style="html=1;dashed=0;whiteSpace=wrap;" vertex="1" parent="1">
          <mxGeometry x="175" y="710" width="100" height="50" as="geometry" />
        </mxCell>
        <mxCell id="fhnLoKFcNljKNc5BReow-32" value="n" style="shape=rhombus;html=1;dashed=0;whiteSpace=wrap;perimeter=rhombusPerimeter;" vertex="1" parent="1">
          <mxGeometry x="500" y="730" width="60" height="50" as="geometry" />
        </mxCell>
        <mxCell id="fhnLoKFcNljKNc5BReow-38" style="edgeStyle=orthogonalEdgeStyle;rounded=0;orthogonalLoop=1;jettySize=auto;html=1;entryX=1;entryY=0.5;entryDx=0;entryDy=0;" edge="1" parent="1" source="fhnLoKFcNljKNc5BReow-33" target="fhnLoKFcNljKNc5BReow-7">
          <mxGeometry relative="1" as="geometry">
            <Array as="points">
              <mxPoint x="580" y="645" />
              <mxPoint x="580" y="220" />
            </Array>
          </mxGeometry>
        </mxCell>
        <mxCell id="fhnLoKFcNljKNc5BReow-33" value="s" style="shape=rhombus;html=1;dashed=0;whiteSpace=wrap;perimeter=rhombusPerimeter;" vertex="1" parent="1">
          <mxGeometry x="500" y="620" width="60" height="50" as="geometry" />
        </mxCell>
        <mxCell id="fhnLoKFcNljKNc5BReow-36" value="encerrar sistema" style="html=1;dashed=0;whiteSpace=wrap;shape=mxgraph.dfd.start" vertex="1" parent="1">
          <mxGeometry x="610" y="780" width="80" height="30" as="geometry" />
        </mxCell>
        <mxCell id="fhnLoKFcNljKNc5BReow-37" style="edgeStyle=orthogonalEdgeStyle;rounded=0;orthogonalLoop=1;jettySize=auto;html=1;entryX=0;entryY=0.5;entryDx=0;entryDy=0;entryPerimeter=0;" edge="1" parent="1" source="fhnLoKFcNljKNc5BReow-32" target="fhnLoKFcNljKNc5BReow-36">
          <mxGeometry relative="1" as="geometry" />
        </mxCell>
      </root>
    </mxGraphModel>
  </diagram>
</mxfile>
